<svg xmlns="http://www.w3.org/2000/svg" version="1.0" width="38pt" height="38pt" viewBox="0 0 1024 1024" preserveAspectRatio="xMidYMid meet" fill="#dddddd"><path d="M501 119c-2.5.4-7.5 1.9-11.1 3.2-5.8 2.1-67.3 37-149.4 84.8-36 21-89.4 51.7-108.5 62.5-19.4 11-23 13.4-30.7 20.8-7.8 7.5-13.4 16-17.6 26.8l-3.2 8.4-.3 171.5c-.3 191.8-.7 179.1 6.9 194.9 3.3 6.7 5.8 10.1 12.8 17.1 9 9.1 12.2 11.2 68.1 43.7 8.5 5 30.6 17.8 49 28.5s46.6 27.1 62.5 36.3c16 9.3 37.6 21.9 48 28 61.2 36 66.7 38.5 85 38.5 16.3 0 23.6-2.7 51-18.5 9.4-5.4 45.8-26.5 81-46.8 88.9-51.4 84.9-49.1 126-72.7 42-24.1 46.7-27.2 55.2-36.4 7.8-8.3 12.9-17.5 16.5-29.4l2.8-9.5V333.2l-2.5-9.8c-3.8-14.5-8.3-22.2-19-32.9-7.2-7.2-11.2-10.3-20.5-15.4-6.3-3.6-18-10.3-26-15-8-4.6-24.4-14-36.5-20.9-21.9-12.3-39-22.2-102-58.7-84-48.8-97.6-56.3-107.6-59.3-7.6-2.3-23.2-3.5-29.9-2.2m23.8 27.9c5.3 1.6 26.6 13.5 79.2 44.1 15.7 9.2 25.9 14.9 36.5 20.5 5 2.6 13.3 7.4 18.5 10.5 17 10.2 37.8 22.3 76.5 44.5 20.9 12 42.3 24.3 47.5 27.5 5.2 3.1 11.7 7 14.4 8.5 7.8 4.4 13.3 10.1 17.1 17.8l3.5 7v346.2l-3 6.4c-2 4.2-5.2 8.5-9.8 13-5.8 5.7-11.8 9.5-45.2 28.8-59.4 34.2-194.9 112.6-210.5 121.8-22.2 13.1-25.9 14.5-37.5 14.5-10-.1-17.2-3.2-44-19.1-28.8-17.2-50.4-29.8-92-53.9-72.3-41.9-96.6-56-114.5-66.5-10.4-6.1-21.9-12.8-25.5-14.8-13.8-7.6-24.1-18.1-28-28.5-2-5.3-2-7.3-1.8-176l.3-170.7 3.2-6.8c4.6-9.6 11.2-15.6 27.4-24.9 48-27.3 173.2-99.4 189.4-109 44.2-26.2 71-40.6 78-42.1 5.1-1.1 14.8-.6 20.3 1.2"/><path d="M279.9 309.7c-1.2 1.3-1.4 32.9-1.7 195.7-.2 142 .1 194.8.9 196.8.8 1.9 2.1 2.9 4.3 3.3 1.7.3 23.5.5 48.4.3 43.6-.3 45.4-.4 46.8-2.2 1.2-1.7 1.4-17.7 1.4-105l.1-103.1 2.5 3c1.3 1.6 12.8 16.5 25.5 33 12.6 16.5 25 32.5 27.5 35.5 8.6 10.6 53.8 73.3 73.9 102.5 5.5 8 7.1 8.1 12.7.8C532 657.5 642 492.9 642 491.1c0-.6.3-1.1.8-1.1.4 0 .6 46.9.5 104.2-.2 57.4.1 105.6.5 107.3l.8 3 47.4.3c26.1.1 47.7-.1 48.2-.6.4-.4.8-88.9.8-196.7 0-157.6-.2-196-1.2-196.7-1.6-1-102.9-1-104.4 0-.7.4-3.4 4.5-6.1 9.2s-12 20.9-20.8 36c-8.7 15.1-25.3 43.9-37 64-34.5 59.4-48.1 83.1-51.1 89.2-1.6 3.2-3.1 5.8-3.5 5.8-.3 0-1.8-1.8-3.3-4.1-4.1-6.1-39.1-70.7-75.6-139.3-17.8-33.5-33-61.5-33.8-62.2-1.1-1.2-12.3-1.4-62.1-1.4-55.4 0-61 .1-62.2 1.7m109.1 8.9c0 .3-7.9 9.2-17.6 19.9-12.2 13.5-18 19.2-19.1 18.8-.8-.3-13.6-9.3-28.5-19.9L296.7 318h46.2c25.3 0 46.1.3 46.1.6m13 7.6c0 .7 3.7 7.6 8.1 15.3 14.8 25.5 44.9 81.1 44.9 82.9 0 .3-9.1-5.5-20.2-12.8-11.2-7.2-29.2-18.8-40.1-25.5-10.9-6.8-22.5-14.3-25.8-16.8l-5.9-4.5 2-2.8c1.2-1.6 5.3-6.4 9.3-10.7s11-12 15.6-17.1c7.7-8.5 12.1-11.4 12.1-8M310.2 376c5.4 11.8 10.1 22.6 10.4 24 .3 1.8-.8 4.2-4.2 9-2.5 3.6-9.5 13.8-15.5 22.7-6.1 8.9-11.4 16.5-11.9 16.8-.6.4-1-21.5-.9-59.2v-59.8l6.1 12.5c3.3 6.9 10.5 22.2 16 34m6-30.8c7.3 5 17.5 12 22.6 15.5 5.8 4.1 9 6.9 8.6 7.6s-4.1 5.8-8.3 11.4c-4.8 6.7-8.2 10.3-9.4 10.3-1.4 0-3.1-2.8-6.9-10.8-2.7-5.9-8.5-18-12.8-27-4.3-8.9-7.7-16.2-7.5-16.2s6.4 4.1 13.7 9.2m39.6 38.1c2.3 15.3 8.2 68.4 8.2 73.6 0 .9-1.2-.7-2.6-3.4-1.5-2.8-6.7-12.4-11.7-21.5-16.5-29.9-15.4-27.5-13.6-30.6 3.5-5.7 17.4-25.4 18-25.4.4 0 1.1 3.3 1.7 7.3m22.7 3.2c7.3 5.2 23.8 16.3 36.7 24.7 39.3 25.8 39.3 25.8 36.7 28.3-.8.7-11.3 5.8-23.4 11.3s-28.3 13-36 16.6c-7.6 3.7-14.4 6.5-15.1 6.2-1.3-.5-1.2.2-5.3-35.6-2.8-23.4-6-48.1-7.6-57.8-.3-1.7-.3-3.2 0-3.2.4 0 6.7 4.3 14 9.5m-47.7 32.2c10 17.2 29.2 52.6 28.8 53-.9.9-56.4-8.1-62-10l-3.7-1.3 15.8-24.1c8.7-13.3 16.1-24.2 16.5-24.3.4 0 2.5 3 4.6 6.7m126.1 45.4c-2.2 8.5-5.3 19.9-6.9 25.4s-5.7 20.3-9 33c-3.4 12.6-6.5 23.6-7 24.4-.7 1.4-4.6-3.3-33.8-42.2-7.8-10.4-14.2-19.7-14.2-20.8 0-2.3 2.5-3.6 38.3-19.8 24.5-11.1 35.8-16 36.4-15.6.1.1-1.6 7.1-3.8 15.6m33.9 25.9c9 16.2 17.7 32.1 19.3 35.2l2.9 5.7v62.3l-.1 62.3-3-3.5c-1.6-1.9-5.1-6.4-7.6-10-2.6-3.6-10.6-14.6-17.8-24.5s-18.3-25.2-24.5-34c-6.3-8.8-12.9-17.8-14.7-20.1l-3.2-4 8.4-30.5c7.4-26.4 13-49 17.5-70.2l1.2-5.9 2.6 3.8c1.4 2.2 10 17.2 19 33.4m-162.3-12.5c17.1 2.5 32.2 4.8 33.7 5.1l2.8.6-3.2 4.6c-7.1 10.5-29.9 42-31.1 43.1-1.1.8-1.9.5-3.4-1.2-1.9-2-24.8-40.2-31.6-52.5l-2.9-5.3 2.4.5c1.2.3 16.3 2.6 33.3 5.1m-24.4 33.7c8.6 14.5 16.4 27.7 17.4 29.3l1.7 3.1-17.6 26.3-17.6 26.2-.2-55.5c-.2-30.6-.1-55.6.2-55.6s7.6 11.8 16.1 26.2m65.7 46-.3 21.3-8.5-8.5c-4.7-4.7-12.2-12.7-16.8-17.7l-8.2-9.2 3.3-5.5c1.8-3 9.3-13.8 16.7-24l13.5-18.5.3 20.4c.1 11.2.1 30 0 41.7m-23.4 11.4c8.3 8.6 15.2 16 15.4 16.4s-1.2 1-3 1.4c-1.8.3-16.3 4.2-32.2 8.6s-29.2 7.8-29.4 7.5c-1.1-1.1 31.2-49.5 33-49.5.6 0 7.9 7 16.2 15.6m6.7 41.8c-7.6 11.1-23.7 33.9-25.7 36.5-.2.2-7.7-6.8-16.8-15.5-10.3-9.9-16.1-16.1-15.3-16.5.7-.4 14.2-4.4 30.1-8.9s29.8-8.5 31-9c1.1-.5 3.1-.9 4.3-.9 1.9-.1.8 1.9-7.6 14.3m16.4 76.4c-.6.6-7.8-5.7-23.4-20.6l-12.3-11.7 7.9-11.5c4.4-6.3 12.3-17.5 17.7-24.9 5.3-7.3 9.7-13.9 9.8-14.5.2-.6.4 17.8.5 40.8.2 23.1.1 42.1-.2 42.4m-62.8-45.4 13.1 12.9-9.6 10.6c-5.3 5.8-12.4 13.7-15.9 17.5l-6.3 6.8v-65.5l2.8 2.3c1.5 1.4 8.6 8.3 15.9 15.4m38.2 37c10 9.2 18.1 17.2 18.1 17.7 0 .6-13.9.9-33.5.9-18.4-.1-33.5-.4-33.5-.8s3.9-5.2 8.6-10.7 11.3-13.2 14.7-17.2 6.5-7.1 6.8-7c.4.1 8.8 7.8 18.8 17.1"/></svg>